<svg xmlns="http://www.w3.org/2000/svg" viewBox="0 0 192 192" fill="none">
  <defs>
    <linearGradient id="g" x1="0%" y1="0%" x2="100%" y2="100%">
      <stop offset="0%" stop-color="#c9a84c"/>
      <stop offset="50%" stop-color="#e8c97a"/>
      <stop offset="100%" stop-color="#c9a84c"/>
    </linearGradient>
  </defs>
  <rect width="192" height="192" rx="42" fill="#faf7f2"/>
  <circle cx="96" cy="96" r="86" fill="none" stroke="url(#g)" stroke-width="1.5"/>
  <circle cx="96" cy="96" r="72" fill="none" stroke="url(#g)" stroke-width="0.8" stroke-dasharray="4 4"/>
  <path d="M65 115 C65 82, 82 66, 96 66 C110 66, 127 82, 127 115 C127 138, 116 148, 96 148 C76 148, 65 138, 65 115Z" fill="none" stroke="url(#g)" stroke-width="3.5"/>
  <path d="M79 110 C79 89, 89 80, 96 80 C103 80, 113 89, 113 110 C113 126, 106 132, 96 132 C86 132, 79 126, 79 110Z" fill="none" stroke="url(#g)" stroke-width="1.2" stroke-dasharray="2 3" opacity="0.6"/>
  <circle cx="113" cy="70" r="3" fill="url(#g)"/>
</svg>