<svg xmlns="http://www.w3.org/2000/svg" viewBox="0 0 100 100" width="100" height="100" fill="none">
  <defs>
    <linearGradient id="goldGrad" x1="0%" y1="0%" x2="100%" y2="100%">
      <stop offset="0%" stop-color="#c9a96e"/>
      <stop offset="50%" stop-color="#dbc08a"/>
      <stop offset="100%" stop-color="#c9a96e"/>
    </linearGradient>
  </defs>
  <!-- Outer ring -->
  <circle cx="50" cy="50" r="48" fill="#e8e0d4" stroke="url(#goldGrad)" stroke-width="2" opacity="0.5"/>
  <!-- Dark inner circle -->
  <circle cx="50" cy="50" r="40" fill="#12121a"/>
  <!-- O monogram -->
  <path d="M32 60 C32 38, 40 28, 50 28 C60 28, 68 38, 68 60 C68 76, 60 82, 50 82 C40 82, 32 76, 32 60Z"
        stroke="url(#goldGrad)" stroke-width="3.5" fill="none"/>
  <path d="M38 56 C38 42, 44 34, 50 34 C56 34, 62 42, 62 56 C62 68, 56 74, 50 74 C44 74, 38 68, 38 56Z"
        stroke="url(#goldGrad)" stroke-width="1.5" opacity="0.5" stroke-dasharray="2 3"/>
  <!-- Sparkle -->
  <path d="M56 22 L56 17 M53.5 19.5 L58.5 19.5" stroke="url(#goldGrad)" stroke-width="2" stroke-linecap="round"/>
  <circle cx="36" cy="74" r="2.5" fill="#c9a96e" opacity="0.5"/>
</svg>